# Blender v2.74 (sub 0) OBJ File: 'corner.blend'
# www.blender.org
mtllib corner.mtl
o Plane
v -0.000000 1.000000 1.000000
v -0.000000 1.000000 0.000000
v 0.000000 0.000000 0.000000
v 1.000000 0.000000 0.000000
v 1.000000 1.000000 0.000000
v -0.000000 0.000000 1.000000
vt 0.000000 1.000000
vt 1.000000 -0.000000
vt 1.000000 1.000000
vt 0.000000 0.000000
vn 0.000000 1.000000 0.000000
vn 0.000000 0.000000 -1.000000
vn -1.000000 -0.000000 -0.000000
vn 0.000000 -1.000000 0.000000
vn 0.707100 0.000000 0.707100
usemtl None
f 1/1/1 5/2/1 2/3/1
f 2/3/2 5/1/2 4/4/2 3/2/2
f 1/3/3 2/1/3 3/4/3 6/2/3
f 3/3/4 4/1/4 6/2/4
f 1/1/5 6/4/5 4/2/5 5/3/5
