# Blender v2.74 (sub 0) OBJ File: 'full_pyramid.blend'
# www.blender.org
mtllib full_pyramid.mtl
o Plane
v 0.000000 0.000000 1.000000
v 1.000000 0.000000 1.000000
v 0.000000 0.000000 0.000000
v 1.000000 0.000000 0.000000
v 0.500000 1.000000 0.500000
vt 0.000100 0.999900
vt 0.000100 0.000100
vt 0.999900 0.000100
vt 0.999900 0.999900
vt 1.000000 0.000000
vt 0.500000 1.000000
vt 0.000000 0.000000
vn 0.000000 -1.000000 0.000000
vn 0.894400 0.447200 0.000000
vn 0.000000 0.447200 -0.894400
vn -0.894400 0.447200 0.000000
vn 0.000000 0.447200 0.894400
usemtl None
f 1/1/1 3/2/1 4/3/1 2/4/1
f 4/5/2 5/6/2 2/7/2
f 3/5/3 5/6/3 4/7/3
f 1/5/4 5/6/4 3/7/4
f 2/5/5 5/6/5 1/7/5
