# Blender v2.74 (sub 0) OBJ File: 'oblique_slope.blend'
# www.blender.org
mtllib oblique_slope.mtl
o Plane
v 0.000000 0.000000 1.000000
v 1.000000 0.000000 1.000000
v 0.000000 0.000000 0.000000
v 1.000000 0.000000 0.000000
v 1.000000 1.000000 0.000000
v 0.000000 1.000000 1.000000
v 0.000000 1.000000 0.000000
vt 0.000100 0.999900
vt 0.000100 0.000100
vt 0.999900 0.000100
vt 0.999900 0.999900
vt 1.000000 0.000000
vt 0.000000 1.000000
vt 0.000000 0.000000
vt 1.000000 1.000000
vt 0.503906 0.000000
vn 0.000000 -1.000000 0.000000
vn 0.000000 0.000000 1.000000
vn 1.000000 0.000000 0.000000
vn 0.577400 0.577400 0.577400
vn 0.000000 0.000000 -1.000000
vn -1.000000 0.000000 0.000000
vn 0.000000 1.000000 0.000000
usemtl None
f 1/1/1 3/2/1 4/3/1 2/4/1
f 2/5/2 6/6/2 1/7/2
f 4/5/3 5/8/3 2/7/3
f 5/8/4 6/6/4 2/9/4
f 3/5/5 7/8/5 5/6/5 4/7/5
f 3/7/6 1/5/6 6/8/6 7/6/6
f 6/6/7 5/5/7 7/8/7
