# Blender v2.74 (sub 0) OBJ File: 'pyramid.blend'
# www.blender.org
mtllib pyramid.mtl
o Plane
v 1.000000 0.000000 0.000000
v 0.000000 0.000000 0.000000
v 1.000000 0.000000 1.000000
v 0.000000 0.000000 1.000000
v 0.500000 0.707107 0.500000
vt 0.000100 0.999900
vt 0.000100 0.000100
vt 0.999900 0.000100
vt 0.999900 0.999900
vt 0.500000 0.865957
vt 1.000000 0.000000
vt 0.500093 0.865864
vt 0.000186 0.000000
vn 0.000000 -1.000000 0.000000
vn 0.000000 0.577400 -0.816500
vn -0.816500 0.577400 0.000000
vn 0.000000 0.577400 0.816500
vn 0.816500 0.577400 0.000000
usemtl None
f 4/1/1 2/2/1 1/3/1 3/4/1
f 2/3/2 5/5/2 1/2/2
f 4/3/3 5/5/3 2/2/3
f 3/6/4 5/7/4 4/8/4
f 1/6/5 5/7/5 3/8/5
