# Blender v2.74 (sub 0) OBJ File: 'sloped_post.blend'
# www.blender.org
mtllib sloped_post.mtl
o Plane.001
v 0.250000 1.000000 0.750000
v 0.750000 1.000000 0.750000
v 0.250000 1.000000 0.250000
v 0.750000 1.000000 0.250000
v 0.000000 0.000000 1.000000
v 1.000000 0.000000 1.000000
v 0.000000 0.000000 0.000000
v 1.000000 0.000000 0.000000
vt 0.000100 0.000100
vt 0.999900 0.000100
vt 0.999900 0.999900
vt 0.000100 0.999900
vt 0.757812 1.000000
vt 0.242586 0.999902
vt 1.000000 0.000000
vt 0.242188 1.000000
vt 0.000000 0.000000
vn 0.000000 1.000000 0.000000
vn 0.000000 -1.000000 0.000000
vn 0.000000 0.242500 0.970100
vn 0.970100 0.242500 0.000000
vn 0.000000 0.242500 -0.970100
vn -0.970100 0.242500 0.000000
usemtl None
f 1/1/1 2/2/1 4/3/1 3/4/1
f 5/4/2 7/1/2 8/2/2 6/3/2
f 2/5/3 1/6/3 5/1/3 6/7/3
f 4/5/4 2/8/4 6/9/4 8/7/4
f 3/5/5 4/8/5 8/9/5 7/7/5
f 1/5/6 3/8/6 7/9/6 5/7/6
